<mxfile host="app.diagrams.net" agent="Mozilla/5.0 (Windows NT 10.0; Win64; x64) AppleWebKit/537.36 (KHTML, like Gecko) Chrome/130.0.0.0 Safari/537.36 OPR/115.0.0.0" version="25.0.3">
  <diagram name="Page-1" id="pfsxATgsMlZGJ2EtdAta">
    <mxGraphModel dx="1008" dy="585" grid="1" gridSize="10" guides="1" tooltips="1" connect="1" arrows="1" fold="1" page="1" pageScale="1" pageWidth="850" pageHeight="1100" math="0" shadow="0">
      <root>
        <mxCell id="0" />
        <mxCell id="1" parent="0" />
        <mxCell id="moUUrllWGxn03yXDQdPL-1" value="" style="ellipse;whiteSpace=wrap;html=1;strokeColor=#000000;align=center;labelBackgroundColor=#000000;fontFamily=Verdana;fillStyle=auto;" vertex="1" parent="1">
          <mxGeometry x="350" y="50" width="120" height="80" as="geometry" />
        </mxCell>
        <mxCell id="moUUrllWGxn03yXDQdPL-3" value="" style="endArrow=classic;html=1;rounded=0;" edge="1" parent="1" target="moUUrllWGxn03yXDQdPL-4">
          <mxGeometry width="50" height="50" relative="1" as="geometry">
            <mxPoint x="410" y="130" as="sourcePoint" />
            <mxPoint x="410" y="200" as="targetPoint" />
            <Array as="points" />
          </mxGeometry>
        </mxCell>
        <mxCell id="moUUrllWGxn03yXDQdPL-4" value="" style="shape=parallelogram;perimeter=parallelogramPerimeter;whiteSpace=wrap;html=1;fixedSize=1;" vertex="1" parent="1">
          <mxGeometry x="350" y="170" width="120" height="60" as="geometry" />
        </mxCell>
        <mxCell id="moUUrllWGxn03yXDQdPL-5" value="" style="endArrow=classic;html=1;rounded=0;exitX=0.427;exitY=1.04;exitDx=0;exitDy=0;exitPerimeter=0;" edge="1" parent="1" source="moUUrllWGxn03yXDQdPL-4" target="moUUrllWGxn03yXDQdPL-8">
          <mxGeometry width="50" height="50" relative="1" as="geometry">
            <mxPoint x="400" y="240" as="sourcePoint" />
            <mxPoint x="401" y="280" as="targetPoint" />
          </mxGeometry>
        </mxCell>
        <mxCell id="moUUrllWGxn03yXDQdPL-8" value="" style="rounded=0;whiteSpace=wrap;html=1;" vertex="1" parent="1">
          <mxGeometry x="341" y="280" width="120" height="50" as="geometry" />
        </mxCell>
        <mxCell id="moUUrllWGxn03yXDQdPL-9" value="" style="endArrow=classic;html=1;rounded=0;" edge="1" parent="1" target="moUUrllWGxn03yXDQdPL-10">
          <mxGeometry width="50" height="50" relative="1" as="geometry">
            <mxPoint x="400" y="330" as="sourcePoint" />
            <mxPoint x="400" y="380" as="targetPoint" />
          </mxGeometry>
        </mxCell>
        <mxCell id="moUUrllWGxn03yXDQdPL-10" value="" style="shape=parallelogram;perimeter=parallelogramPerimeter;whiteSpace=wrap;html=1;fixedSize=1;" vertex="1" parent="1">
          <mxGeometry x="340" y="380" width="120" height="60" as="geometry" />
        </mxCell>
        <mxCell id="moUUrllWGxn03yXDQdPL-11" value="" style="endArrow=classic;html=1;rounded=0;exitX=0.5;exitY=1;exitDx=0;exitDy=0;" edge="1" parent="1" source="moUUrllWGxn03yXDQdPL-10" target="moUUrllWGxn03yXDQdPL-12">
          <mxGeometry width="50" height="50" relative="1" as="geometry">
            <mxPoint x="400" y="330" as="sourcePoint" />
            <mxPoint x="400" y="490" as="targetPoint" />
          </mxGeometry>
        </mxCell>
        <mxCell id="moUUrllWGxn03yXDQdPL-12" value="" style="ellipse;whiteSpace=wrap;html=1;" vertex="1" parent="1">
          <mxGeometry x="340" y="480" width="120" height="70" as="geometry" />
        </mxCell>
      </root>
    </mxGraphModel>
  </diagram>
</mxfile>
